<?xml version="1.0" encoding="iso-8859-1"?>
<!-- Generator: Adobe Illustrator 17.1.0, SVG Export Plug-In . SVG Version: 6.00 Build 0)  -->
<!DOCTYPE svg PUBLIC "-//W3C//DTD SVG 1.1//EN" "http://www.w3.org/Graphics/SVG/1.1/DTD/svg11.dtd">
<svg version="1.1" id="Capa_1" xmlns="http://www.w3.org/2000/svg" xmlns:xlink="http://www.w3.org/1999/xlink" x="0px" y="0px"
	 viewBox="0 0 450.206 450.206" style="enable-background:new 0 0 450.206 450.206;" xml:space="preserve">
<path d="M371.972,407.031l-59.271-186.071c-2.064-6.481-6.749-16.399-10.444-22.108l-9.29-14.36
	c-3.105-4.802-3.512-13.15-0.887-18.23c0.459-0.887,11.256-21.857,13.493-32.765c1.556-7.587,2.404-19.358,2.868-29.959
	l7.022,56.455c0.968,7.774,8.128,14.099,15.962,14.099h17.204c3.922,0,7.437-1.543,9.895-4.346c2.459-2.803,3.531-6.488,3.02-10.377
	l-16.5-125.446c-0.973-7.398-6.93-15.873-13.563-19.294L306.278,1.629C304.213,0.563,301.879,0,299.528,0
	c-5.464,0-10.491,2.907-13.122,7.585c-0.217,0.387-22.205,38.691-61.306,38.691c-39.03,0-61.089-38.306-61.306-38.691
	C161.164,2.907,156.136,0,150.672,0c-2.35,0-4.684,0.563-6.75,1.628l-25.203,12.999c-6.625,3.417-12.629,11.875-13.67,19.255
	L88.771,149.359c-0.548,3.889,0.493,7.576,2.931,10.381c2.438,2.806,5.943,4.351,9.87,4.351h17.204
	c7.819,0,15.047-6.302,16.113-14.047l6.797-49.376c0.446,11.436,1.323,24.93,3.043,33.319c2.213,10.791,12.911,31.423,13.365,32.296
	c2.637,5.068,2.231,13.395-0.886,18.183l-8.731,13.407c-3.713,5.701-8.417,15.61-10.486,22.09L78.238,407.032
	c-2.296,7.189-0.079,17.158,5.048,22.696l13.228,14.288c3.206,3.462,8.208,5.529,13.382,5.529c3.018,0,5.892-0.709,8.313-2.05
	l18.539-10.269c2.393-1.326,5.777-2.085,9.286-2.085s6.893,0.76,9.286,2.085l18.539,10.269c3.157,1.749,7.315,2.711,11.708,2.711
	c4.394,0,8.552-0.963,11.708-2.711l18.539-10.269c2.393-1.326,5.777-2.085,9.286-2.085s6.893,0.76,9.286,2.085l18.538,10.269
	c3.157,1.749,7.315,2.711,11.709,2.711s8.552-0.963,11.708-2.711l18.54-10.269c2.393-1.326,5.776-2.085,9.285-2.085
	s6.893,0.76,9.286,2.085l18.538,10.269c2.42,1.341,5.295,2.05,8.313,2.05h0.001c5.174,0,10.177-2.067,13.381-5.529l13.229-14.288
	C372.041,424.19,374.262,414.221,371.972,407.031z"/>
<g>
</g>
<g>
</g>
<g>
</g>
<g>
</g>
<g>
</g>
<g>
</g>
<g>
</g>
<g>
</g>
<g>
</g>
<g>
</g>
<g>
</g>
<g>
</g>
<g>
</g>
<g>
</g>
<g>
</g>
</svg>
