<?xml version="1.0" encoding="iso-8859-1"?>
<!-- Generator: Adobe Illustrator 16.0.0, SVG Export Plug-In . SVG Version: 6.00 Build 0)  -->
<!DOCTYPE svg PUBLIC "-//W3C//DTD SVG 1.1//EN" "http://www.w3.org/Graphics/SVG/1.1/DTD/svg11.dtd">
<svg version="1.1" id="Capa_1" xmlns="http://www.w3.org/2000/svg" xmlns:xlink="http://www.w3.org/1999/xlink" x="0px" y="0px"
	 width="525.938px" height="525.938px" viewBox="0 0 525.938 525.938" style="enable-background:new 0 0 525.938 525.938;"
	 xml:space="preserve">
<g>
	<g id="Layer_2">
		<path d="M392.062,525.938V408.605c57.814-40.659,95.625-107.836,95.625-183.887C487.688,100.607,387.08,0,262.969,0
			C138.857,0,38.25,100.607,38.25,224.719c0,76.051,37.81,143.228,95.625,183.887v117.332h28.688v-47.812h28.688v47.812h28.688
			v-47.812h28.688v47.812h28.688v-47.812H306v47.812h28.688v-47.812h28.688v47.812H392.062z M416.619,288.396l-22.816-22.816
			l15.214-15.214l22.826,22.816L416.619,288.396z M449.438,229.5H420.75v-19.125h28.688V229.5z M416.619,151.479l15.214,15.214
			l-22.826,22.816l-15.214-15.214L416.619,151.479z M353.812,133.875h19.125v28.688h-19.125V133.875z M310.131,151.479
			l22.816,22.816l-15.214,15.214l-22.826-22.816L310.131,151.479z M277.312,210.375H306V229.5h-28.688V210.375z M215.807,151.479
			l15.214,15.214l-22.826,22.816l-15.214-15.214L215.807,151.479z M248.625,210.375V229.5h-28.688v-19.125H248.625z M153,133.875
			h19.125v28.688H153V133.875z M109.318,151.479l22.816,22.816l-15.214,15.214l-22.826-22.816L109.318,151.479z M76.5,210.375
			h28.688V229.5H76.5V210.375z M109.318,288.396l-15.214-15.214l22.826-22.816l15.214,15.214L109.318,288.396z M172.125,306H153
			v-28.688h19.125V306z M162.562,258.188c-21.124,0-38.25-17.126-38.25-38.25s17.126-38.25,38.25-38.25s38.25,17.126,38.25,38.25
			S183.686,258.188,162.562,258.188z M215.807,288.396l-22.816-22.816l15.214-15.214l22.826,22.816L215.807,288.396z
			 M295.357,353.812H229.5c-9.562,0-13.148-5.977-4.781-16.734C231.556,328.29,248.625,306,248.625,306
			c10.959-14.344,19.326-13.148,28.688,0l25.771,32.455C309.347,346.898,305.876,353.812,295.357,353.812z M310.131,288.396
			l-15.214-15.214l22.826-22.816l15.214,15.214L310.131,288.396z M325.125,219.938c0-21.124,17.126-38.25,38.25-38.25
			s38.25,17.126,38.25,38.25s-17.126,38.25-38.25,38.25S325.125,241.061,325.125,219.938z M353.812,306v-28.688h19.125V306H353.812z
			"/>
	</g>
</g>
<g>
</g>
<g>
</g>
<g>
</g>
<g>
</g>
<g>
</g>
<g>
</g>
<g>
</g>
<g>
</g>
<g>
</g>
<g>
</g>
<g>
</g>
<g>
</g>
<g>
</g>
<g>
</g>
<g>
</g>
</svg>
