<?xml version="1.0" encoding="iso-8859-1"?>
<!-- Generator: Adobe Illustrator 16.0.0, SVG Export Plug-In . SVG Version: 6.00 Build 0)  -->
<!DOCTYPE svg PUBLIC "-//W3C//DTD SVG 1.1//EN" "http://www.w3.org/Graphics/SVG/1.1/DTD/svg11.dtd">
<svg version="1.1" id="Capa_1" xmlns="http://www.w3.org/2000/svg" xmlns:xlink="http://www.w3.org/1999/xlink" x="0px" y="0px"
	 width="366.763px" height="366.763px" viewBox="0 0 366.763 366.763" style="enable-background:new 0 0 366.763 366.763;"
	 xml:space="preserve">
<g>
	<g>
		<polygon points="0,214.412 0.119,214.241 18.706,227.064 18.706,198.458 0,185.555 		"/>
		<polygon points="323.462,99.278 348.057,99.278 348.057,110.458 366.763,123.357 366.763,80.572 337.468,80.572 		"/>
		<polygon points="306.31,80.572 273.525,80.572 259.521,99.278 292.298,99.278 		"/>
		<polygon points="195.571,99.278 228.355,99.278 242.36,80.572 209.577,80.572 		"/>
		<polygon points="131.633,99.278 164.417,99.278 178.422,80.572 145.638,80.572 		"/>
		<polygon points="0,155.499 0.113,155.338 18.706,168.165 18.706,139.558 0,126.655 		"/>
		<polygon points="67.69,99.278 100.475,99.278 114.479,80.572 81.695,80.572 		"/>
		<polygon points="0,96.602 0.119,96.435 18.706,109.252 18.706,99.278 36.532,99.278 50.537,80.572 0,80.572 		"/>
		<polygon points="0,286.19 30.403,286.19 44.408,267.484 18.706,267.484 18.706,257.365 0,244.468 		"/>
		<polygon points="348.057,228.265 366.763,241.168 366.763,212.561 348.057,199.658 		"/>
		<polygon points="253.389,286.19 286.179,286.19 300.178,267.484 267.394,267.484 		"/>
		<polygon points="366.763,153.66 348.057,140.761 348.057,169.361 366.763,182.261 		"/>
		<polygon points="366.763,271.467 348.057,258.57 348.057,267.484 331.335,267.484 317.33,286.19 366.763,286.19 		"/>
		<polygon points="75.563,267.484 61.562,286.19 94.346,286.19 108.351,267.484 		"/>
		<polygon points="189.446,286.19 222.23,286.19 236.235,267.484 203.451,267.484 		"/>
		<polygon points="158.288,286.19 172.293,267.484 139.509,267.484 125.504,286.19 		"/>
		<path d="M172.335,122.204c-14.988,0-27.185,12.197-27.185,27.185c0,14.991,12.197,27.188,27.185,27.188
			c14.992,0,27.188-12.197,27.188-27.188C199.523,134.4,187.327,122.204,172.335,122.204z M172.335,172.205
			c-12.583,0-22.819-10.239-22.819-22.822c0-12.583,10.236-22.819,22.819-22.819c12.583,0,22.822,10.236,22.822,22.819
			C195.157,161.966,184.919,172.205,172.335,172.205z"/>
		<path d="M172.335,132.659c-9.222,0-16.721,7.502-16.721,16.724c0,9.222,7.499,16.724,16.721,16.724s16.721-7.502,16.721-16.724
			C189.057,140.161,181.558,132.659,172.335,132.659z M172.335,161.74c-6.814,0-12.352-5.541-12.352-12.352
			c0-6.808,5.544-12.358,12.352-12.358c6.811,0,12.352,5.544,12.352,12.358C184.688,156.206,179.152,161.74,172.335,161.74z"/>
		<path d="M210.88,133.883c-3.307,2.694,1.395,7.337,4.664,4.67c19.912-16.194,40.463,1.465,61.738,3.66
			c18.219,1.881,33.74-3.474,49.925-11.405c3.83-1.875,0.476-7.569-3.337-5.706c-25.392,12.44-44.95,12.589-71.377,3.468
			C236.96,123.208,223.862,123.312,210.88,133.883z"/>
		<path d="M215.544,151.767c19.912-16.194,40.463,1.464,61.738,3.659c18.219,1.882,33.74-3.474,49.925-11.404
			c3.83-1.876,0.476-7.569-3.337-5.706c-25.392,12.44-44.95,12.59-71.377,3.468c-15.533-5.361-28.631-5.258-41.613,5.313
			C207.573,149.781,212.274,154.434,215.544,151.767z"/>
		<path d="M323.87,151.535c-25.392,12.44-44.95,12.589-71.377,3.465c-15.533-5.361-28.631-5.255-41.613,5.312
			c-3.307,2.694,1.395,7.341,4.664,4.671c19.912-16.191,40.463,1.467,61.738,3.662c18.225,1.882,33.74-3.474,49.925-11.398
			C331.037,155.362,327.683,149.663,323.87,151.535z"/>
		<path d="M35.865,238.896v10.442v6.309h17.409h17.089H99.36V208.67H35.865V238.896z M42.101,214.898h51.03v34.514H62.04h-4.089
			h-15.85V214.898z"/>
		<rect x="45.94" y="220.038" width="43.336" height="24.229"/>
	</g>
</g>
<g>
</g>
<g>
</g>
<g>
</g>
<g>
</g>
<g>
</g>
<g>
</g>
<g>
</g>
<g>
</g>
<g>
</g>
<g>
</g>
<g>
</g>
<g>
</g>
<g>
</g>
<g>
</g>
<g>
</g>
</svg>
